<svg xmlns="http://www.w3.org/2000/svg" viewBox="0 0 1024 1024"><rect width="1024" height="1024" rx="192" fill="#000"/><path fill="#fff" d="m279 312 2.204.358q3.39.553 6.776 1.127l2.066.339c16.022 2.788 31.258 10.46 43.052 21.624.555.519 1.11 1.037 1.68 1.572 6.463 6.084 12.714 12.378 18.96 18.684l3.957 3.981q4.221 4.245 8.438 8.495 6.687 6.734 13.385 13.457l4.61 4.628 2.33 2.339a24132 24132 0 0 1 31.094 31.27 10969 10969 0 0 0 21.071 21.179q5.566 5.575 11.107 11.176 5.212 5.265 10.454 10.502a760 760 0 0 1 3.799 3.835c15.234 15.475 31.542 25.905 53.892 26.747 24.036-.617 40.079-13.77 56.08-29.99q2.048-2.06 4.098-4.117 4.389-4.409 8.764-8.828c4.625-4.671 9.263-9.33 13.902-13.987a28639 28639 0 0 0 34.53-34.74c8.943-9.01 17.891-18.016 26.853-27.008q6.899-6.925 13.774-13.875 4.305-4.341 8.626-8.668 1.98-1.988 3.948-3.986c18.727-19.009 40.982-34.977 68.827-35.303l3.702-.051 3.958-.041 4.102-.056c5.052-.07 10.105-.13 15.158-.19q6.416-.075 12.832-.165 2.996-.038 5.992-.068l3.702-.05 3.242-.039c3.042-.047 3.042-.047 5.92-.91C819 311 819 311 821.442 312.569l2.42 2.424 2.808 2.76 3.027 3.085q1.613 1.606 3.23 3.207c2.928 2.909 5.833 5.839 8.734 8.774 3.05 3.078 6.117 6.137 9.182 9.2a5047 5047 0 0 1 15.43 15.506 4969 4969 0 0 0 17.764 17.822 8034 8034 0 0 1 17.162 17.199q3.627 3.645 7.266 7.28c32.7 32.712 53.74 66.18 54.58 113.633-.146 40.427-18.96 74.693-46.885 102.72l-3.166 3.202a3967 3967 0 0 1-8.516 8.576q-2.668 2.68-5.333 5.361-8.354 8.403-16.723 16.792a6419 6419 0 0 0-19.239 19.366 4491 4491 0 0 1-14.928 15.01c-2.973 2.976-5.94 5.958-8.894 8.955q-4.155 4.213-8.355 8.382a358 358 0 0 0-3.054 3.088 332 332 0 0 1-4.19 4.183l-2.361 2.373C819 713 819 713 815.887 712.752L813 712q-3.05-.133-6.103-.142l-3.594-.021-3.854-.013q-2.01-.015-4.022-.034c-5.662-.052-11.323-.1-16.985-.116-30.718-.098-30.718-.098-44.442-4.674l-2.57-.839c-21.2-7.62-36.494-24.038-51.963-39.675l-3.927-3.956q-4.193-4.223-8.382-8.45a10084 10084 0 0 0-13.297-13.38l-2.28-2.29-4.61-4.634a19767 19767 0 0 1-30.896-31.099 9007 9007 0 0 0-20.926-21.052 3096 3096 0 0 1-11.034-11.114q-5.176-5.24-10.387-10.443a628 628 0 0 1-3.775-3.817c-13.376-13.629-29.209-24.046-48.98-24.544-23.682-.205-39.547 9.086-56.191 25.44a1631 1631 0 0 0-10.422 10.443l-3.962 3.981q-4.23 4.25-8.456 8.504a12559 12559 0 0 1-13.41 13.468l-4.614 4.63-2.333 2.341a30506 30506 0 0 0-31.158 31.306 13795 13795 0 0 1-21.103 21.192q-5.575 5.583-11.13 11.186a3145 3145 0 0 1-10.473 10.515 954 954 0 0 0-3.81 3.84c-17.32 17.543-36.469 29.161-61.196 32.883q-3.667.556-7.327 1.153c-59.765 9.578-59.765 9.578-82.812-6.704-15.669-11.788-28.862-26.702-41.721-41.402-5.905-6.733-12.048-13.23-18.212-19.724-41.871-44.19-72.49-82.082-70.827-145.654.305-8.286 1.887-16.16 4.184-24.105l.551-2.012c7.115-25.527 22.925-45.661 40.21-65.167l1.395-1.575c9.147-10.32 18.524-20.42 27.993-30.446 5.99-6.35 11.89-12.75 17.62-19.337C191.911 312.745 221.55 302.383 279 312"/><path fill="#fff" d="m549 66 2.012.551c28.96 8.072 50.637 26.78 71.393 47.611q2.602 2.601 5.207 5.201 6.3 6.296 12.59 12.6 7.331 7.344 14.67 14.68a42856 42856 0 0 1 26.153 26.176 41117 41117 0 0 0 26.968 26.989l1.582 1.581q14.47 14.471 28.934 28.948 5.115 5.12 10.233 10.238 6.87 6.87 13.733 13.75l5.055 5.059q3.434 3.435 6.862 6.875l2.053 2.047C781 272.886 781 272.886 781 274l-2.269.044c-30.679.665-58.265 4.45-84.856 20.644l-1.77 1.057c-12.847 8.146-23.673 19.547-34.295 30.314l-4.066 4.094q-4.335 4.364-8.66 8.736a7427 7427 0 0 1-13.723 13.818 24647 24647 0 0 0-38.988 39.263 9763 9763 0 0 1-21.606 21.746q-6.824 6.851-13.615 13.735c-2.82 2.852-5.651 5.69-8.487 8.526a676 676 0 0 0-3.906 3.952c-7.549 7.696-13.809 13.8-24.86 15.567-17.814-.414-27.709-14.161-39.48-26.027l-4.015-4.034a14169 14169 0 0 1-8.59-8.638q-6.808-6.847-13.624-13.683l-4.685-4.7-2.369-2.377a31437 31437 0 0 1-31.67-31.817q-10.702-10.77-21.429-21.519a4788 4788 0 0 1-11.305-11.362q-5.31-5.357-10.648-10.69a984 984 0 0 1-3.872-3.9c-14.836-15.025-31.642-26.984-51.462-34.562l-2.05-.805c-16.365-5.902-33.22-7.006-50.45-7.132q-2.97-.042-5.941-.09-7.155-.106-14.309-.16c1.311-2.893 2.714-4.965 4.953-7.21l1.842-1.862 2.026-2.017 2.151-2.164c2.386-2.4 4.78-4.791 7.173-7.183l5.13-5.15q6.255-6.277 12.52-12.542 5.1-5.102 10.195-10.207 14.47-14.498 28.955-28.98l1.577-1.578 1.58-1.58c8.424-8.422 16.837-16.855 25.247-25.293q12.974-13.017 25.971-26.012 7.289-7.284 14.56-14.587 6.855-6.881 13.733-13.737 2.51-2.506 5.008-5.023C444.167 71.073 495.8 50.618 549 66M533 573c5.187 3.935 9.632 8.777 14.17 13.422q2.081 2.092 4.168 4.18 4.47 4.486 8.91 8.998c4.692 4.768 9.408 9.51 14.128 14.25 7.47 7.507 14.924 15.031 22.37 22.562a20728 20728 0 0 0 40.007 40.338q7.015 7.059 14.006 14.142 4.372 4.423 8.756 8.835 2.014 2.03 4.019 4.07c29.159 29.652 62.46 44.468 104.029 45.765l3.923.131q4.757.159 9.514.307c-4.198 5.005-8.57 9.718-13.188 14.336l-2.125 2.135a6513 6513 0 0 1-7.011 7.03l-5.043 5.063q-7.55 7.577-15.107 15.146l-5.706 5.717a55736 55736 0 0 1-32.908 32.957q-12.374 12.39-24.732 24.799a20430 20430 0 0 1-25.47 25.524q-7.143 7.144-14.269 14.305a5075 5075 0 0 1-13.447 13.464 1589 1589 0 0 0-4.9 4.921c-28.23 28.455-61.13 46.668-102.011 46.908-13.796.044-26.733-.445-40.083-4.305l-2.012-.551c-28.907-8.057-50.572-26.72-71.301-47.503l-5.177-5.167q-6.266-6.254-12.519-12.517-5.08-5.088-10.167-10.17l-1.467-1.466-2.951-2.95q-13.792-13.786-27.571-27.582a29093 29093 0 0 0-23.671-23.67 42416 42416 0 0 1-30.46-30.453l-1.456-1.457q-5.085-5.086-10.175-10.168-6.834-6.825-13.654-13.664a3378 3378 0 0 0-5.026-5.024 2847 2847 0 0 1-6.823-6.834l-2.041-2.028-1.827-1.842-1.593-1.594C244 752 244 752 244 750l3.63-.028c4.548-.04 9.095-.107 13.643-.18q2.924-.041 5.847-.063c24.396-.189 46.62-4.798 68.193-16.479l2.023-1.083c13.448-7.642 24.478-18.558 35.253-29.48l4.194-4.211q4.474-4.494 8.936-9c4.707-4.753 9.427-9.494 14.149-14.233a29851 29851 0 0 0 35.11-35.32 19370 19370 0 0 1 27.367-27.522q7.036-7.062 14.048-14.15a3398 3398 0 0 1 8.743-8.784q2.022-2.032 4.034-4.074a939 939 0 0 1 5.533-5.557l1.587-1.628c10.326-10.201 23.904-12.13 36.71-5.208"/></svg>
